Coordinates
version=1
nRows=14
nColumns=24
inDegrees=yes

Units are S.I. units (second, meters, Newtons, ...)
Angles are in degrees.

endheader
time	pelvis_tilt	pelvis_list	pelvis_rotation	pelvis_tx	pelvis_ty	pelvis_tz	hip_flexion_r	hip_adduction_r	hip_rotation_r	knee_angle_r	ankle_angle_r	subtalar_angle_r	mtp_angle_r	hip_flexion_l	hip_adduction_l	hip_rotation_l	knee_angle_l	ankle_angle_l	subtalar_angle_l	mtp_angle_l	lumbar_extension	lumbar_bending	lumbar_rotation
      4.12000000	     -8.63596202	      2.95282143	    -10.90036812	     -2.28730055	     -0.02994740	      0.45139124	     -7.12063045	     -2.25297488	      8.95604220	    -16.14713477	      3.13741745	      5.56330476	      9.61728674	     29.49777753	     -0.87464936	     -0.30872503	     -7.58296625	     -7.91627093	      1.26648025	     14.28812356	      7.69982430	     -1.25000551	     11.41916189
      4.12500000	     -8.71595178	      3.09017826	    -10.96872752	     -2.27998789	     -0.03047875	      0.45079160	     -6.97491763	     -2.51473510	      8.84760878	    -17.01761171	      2.58810353	      5.92693581	     10.23445248	     29.62775417	     -0.64054377	     -0.43626081	     -8.40141176	     -8.51042299	      1.13972619	     14.31370351	      7.89851485	     -1.35002126	     11.40924733
      4.13000000	     -8.79897875	      3.26317355	    -10.99738641	     -2.27262758	     -0.03093772	      0.45014526	     -6.79179760	     -2.80880840	      8.68666043	    -17.93229177	      1.94181823	      6.28547011	     10.82560846	     29.76104993	     -0.36076945	     -0.61836815	     -9.19066602	     -9.26077719	      1.00891960	     14.31195175	      8.10954588	     -1.49511583	     11.40623694
      4.13500000	     -8.89125863	      3.44283811	    -11.03142989	     -2.26536650	     -0.03134453	      0.44946494	     -6.51137787	     -3.10944761	      8.47043311	    -18.96188673	      1.23040097	      6.66660046	     11.59454078	     29.89841457	     -0.08639460	     -0.76028269	     -9.93864931	    -10.13684175	      0.78549342	     14.29181866	      8.31194085	     -1.63961112	     11.36081417
      4.14000000	     -8.96875880	      3.66601466	    -10.99572463	     -2.25802759	     -0.03162426	      0.44874578	     -6.23666537	     -3.44596376	      8.23223383	    -19.99730003	      0.36337111	      6.97182399	     12.25223924	     30.03146547	      0.25519451	     -0.96578144	    -10.67192732	    -11.05592698	      0.63053678	     14.19393175	      8.51327408	     -1.85213471	     11.34372533
      4.14500000	     -9.05937860	      3.88558882	    -11.00312405	     -2.25082814	     -0.03184856	      0.44800526	     -5.83087520	     -3.78714592	      7.94715604	    -21.17349071	     -0.60207816	      7.31721879	     13.22364607	     30.16412182	      0.57143239	     -1.06168981	    -11.37030594	    -11.98676662	      0.30710730	     13.99016881	      8.70450938	     -2.03996438	     11.27730752
      4.15000000	     -9.13189563	      4.09212812	    -10.94712354	     -2.24364785	     -0.03194354	      0.44720265	     -5.43053839	     -4.10706481	      7.65881162	    -22.34483741	     -1.77646178	      7.55931399	     14.29864385	     30.29653152	      0.90950188	     -1.10348448	    -12.10343785	    -12.86979723	     -0.04339677	     13.61877321	      8.86183763	     -2.23456989	     11.24337901
      4.15500000	     -9.19380875	      4.34173810	    -10.89921654	     -2.23641719	     -0.03195648	      0.44643782	     -4.97547984	     -4.46860234	      7.37810341	    -23.58966124	     -3.11320376	      7.71473360	     15.39898035	     30.40932729	      1.28731725	     -1.12893535	    -12.84184149	    -13.57212489	     -0.38743626	     13.03489661	      9.02254492	     -2.47307895	     11.19985028
      4.16000000	     -9.24129311	      4.58925737	    -10.84210901	     -2.22923174	     -0.03189635	      0.44570000	     -4.47801259	     -4.81615021	      7.12437752	    -24.89874362	     -4.61444905	      7.77701079	     16.52822888	     30.51504529	      1.67329184	     -1.10905394	    -13.62464291	    -14.08635194	     -0.75812377	     12.23036642	      9.15742987	     -2.72371954	     11.17209514
      4.16500000	     -9.26727175	      4.80008045	    -10.79352659	     -2.22202271	     -0.03178317	      0.44498138	     -3.96123120	     -5.12180119	      6.89086477	    -26.23758022	     -6.33962836	      7.71654019	     17.81159781	     30.58553467	      2.03360503	     -1.04043702	    -14.44799942	    -14.29012977	     -1.15842189	     11.21016128	      9.26087605	     -2.93519998	     11.12135179
      4.17000000	     -9.28073131	      5.00795998	    -10.75777267	     -2.21486200	     -0.03162401	      0.44428677	     -3.39601439	     -5.40772964	      6.73391556	    -27.64184781	     -8.21542767	      7.54653878	     19.04272202	     30.63363796	      2.39158371	     -0.96976490	    -15.28455960	    -14.29270668	     -1.55477936	     10.11160634	      9.33872395	     -3.14033333	     11.11889512
      4.17500000	     -9.27827134	      5.19950313	    -10.72175299	     -2.20773178	     -0.03144661	      0.44364110	     -2.79446719	     -5.65693637	      6.62297759	    -29.09843320	    -10.25944605	      7.23718510	     20.28921626	     30.65030944	      2.73842779	     -0.89820360	    -16.13274902	    -14.04302704	     -1.90391808	      8.99774291	      9.39017237	     -3.33990022	     11.11116790
      4.18000000	     -9.25653196	      5.38212256	    -10.69825013	     -2.20069339	     -0.03126665	      0.44305232	     -2.14687010	     -5.87577485	      6.56398955	    -30.62560815	    -12.40129542	      6.80292510	     21.48578978	     30.63185897	      3.07197218	     -0.85582861	    -16.97493965	    -13.58331478	     -2.16990287	      7.97706094	      9.40214402	     -3.53678561	     11.10583582
      4.18500000	     -9.21736967	      5.58987840	    -10.64518943	     -2.19372961	     -0.03112081	      0.44248731	     -1.45335687	     -6.10834891	      6.47613752	    -32.21924107	    -14.58032611	      6.26733878	     22.75124558	     30.59465970	      3.43599181	     -0.89239314	    -17.82119964	    -12.87433492	     -2.19415062	      7.05851074	      9.38466331	     -3.77548997	     11.04488866
